<?xml version="1.0" encoding="iso-8859-1"?>
<!-- Generator: Adobe Illustrator 19.0.0, SVG Export Plug-In . SVG Version: 6.00 Build 0)  -->
<svg version="1.1" id="Capa_1" xmlns="http://www.w3.org/2000/svg" xmlns:xlink="http://www.w3.org/1999/xlink" x="0px" y="0px"
	 viewBox="0 0 384.989 384.989" style="enable-background:new 0 0 384.989 384.989;" xml:space="preserve">
<g>
	<path id="Arrow_Left_1_" d="M383.37,344.044c0.602-4.042,13.342-101.175-43.778-168.015
		c-35.092-41.071-89.241-63.556-159.161-65.782l-0.373-67.526c0-4.644-2.683-8.866-6.869-10.863
		c-4.199-1.961-9.167-1.396-12.764,1.54L4.427,161.424c-2.791,2.286-4.415,5.702-4.427,9.311c-0.012,3.609,1.6,7.026,4.391,9.311
		L160.4,309.289c3.585,2.971,8.602,3.585,12.764,1.588c4.223-1.985,6.893-6.232,6.893-10.875l0.373-69.042
		c168.533-0.12,180.515,107.864,180.924,112.327c0.517,6.063,4.355,10.791,10.442,10.984c0.144,0.012,0.277,0.012,0.409,0.012
		C378.161,354.282,382.479,349.939,383.37,344.044z M159.546,210.219c-2.262,2.262-3.537,5.317-3.537,8.517v55.797L31.026,170.808
		L156.009,68.045v54.052c0,6.653,5.378,12.03,12.03,12.03c68.452,0,120.748,19.826,153.206,57.457
		c24.409,28.319,35.634,62.979,39.471,91.743c-26.274-35.898-72.278-76.549-192.665-76.621c0,0-0.012,0-0.024,0
		C164.851,206.706,161.796,207.97,159.546,210.219z"/>
	<g>
	</g>
	<g>
	</g>
	<g>
	</g>
	<g>
	</g>
	<g>
	</g>
	<g>
	</g>
</g>
<g>
</g>
<g>
</g>
<g>
</g>
<g>
</g>
<g>
</g>
<g>
</g>
<g>
</g>
<g>
</g>
<g>
</g>
<g>
</g>
<g>
</g>
<g>
</g>
<g>
</g>
<g>
</g>
<g>
</g>
</svg>
