<?xml version="1.0" encoding="iso-8859-1"?>
<!-- Generator: Adobe Illustrator 19.0.0, SVG Export Plug-In . SVG Version: 6.00 Build 0)  -->
<svg version="1.1" id="Capa_1" xmlns="http://www.w3.org/2000/svg" xmlns:xlink="http://www.w3.org/1999/xlink" x="0px" y="0px"
	 viewBox="0 0 384.972 384.972" style="enable-background:new 0 0 384.972 384.972;" xml:space="preserve">
<g>
	<path id="Arrow_Right_2_" d="M12.766,354.273c0.132,0,0.277,0,0.409-0.012c6.087-0.204,9.925-4.92,10.442-10.984
		c0.409-4.463,12.391-112.447,180.924-112.327l0.373,69.042c0,4.656,2.683,8.89,6.893,10.875c4.175,1.997,9.191,1.383,12.764-1.588
		l156.009-129.242c2.791-2.286,4.403-5.714,4.391-9.311c-0.012-3.609-1.636-7.026-4.427-9.299L224.548,33.389
		c-3.597-2.935-8.566-3.501-12.752-1.54c-4.199,1.997-6.869,6.232-6.869,10.863l-0.373,67.526
		c-69.92,2.226-124.056,24.71-159.161,65.782c-57.12,66.84-44.368,163.973-43.778,168.015
		C2.504,349.931,6.823,354.273,12.766,354.273z M216.945,206.698c-0.012,0-0.024,0-0.024,0
		C96.533,206.77,50.529,247.42,24.267,283.319c3.838-28.764,15.062-63.424,39.471-91.743
		c32.458-37.631,84.753-57.457,153.206-57.457c6.653,0,12.03-5.378,12.03-12.03V68.036l124.983,102.763L228.975,274.525v-55.797
		c0-3.2-1.263-6.268-3.537-8.517C223.188,207.961,220.133,206.698,216.945,206.698z"/>
	<g>
	</g>
	<g>
	</g>
	<g>
	</g>
	<g>
	</g>
	<g>
	</g>
	<g>
	</g>
</g>
<g>
</g>
<g>
</g>
<g>
</g>
<g>
</g>
<g>
</g>
<g>
</g>
<g>
</g>
<g>
</g>
<g>
</g>
<g>
</g>
<g>
</g>
<g>
</g>
<g>
</g>
<g>
</g>
<g>
</g>
</svg>
